<?xml version="1.0" encoding="UTF-8"?>
<svg version="1.1" xmlns="http://www.w3.org/2000/svg" width="32" height="32">
<path d="M0 0 C4.10941719 1.6942334 6.36768213 4.12291392 8.9375 7.6875 C10.78505644 13.44752891 11.20061917 19.33685166 8.4375 24.875 C4.91167908 29.39528324 1.92121926 31.58814205 -3.6875 32.37890625 C-8.22216917 32.56990454 -11.29830579 32.33170999 -15.4375 30.375 C-19.1981784 26.88949319 -21.67490565 24.41498657 -22.3828125 19.15625 C-22.56096164 14.35809977 -22.41347955 10.89057134 -20.375 6.5 C-14.18737136 -0.0132933 -8.83037918 -1.36125148 0 0 Z M-15.51171875 6.33203125 C-18.5901905 9.67512808 -20 12.47211131 -20 17 C-18.62738759 21.60228868 -16.79441353 25.1786093 -12.8671875 28.109375 C-8.97962198 29.96369496 -5.14654959 29.94834336 -1 29 C2.42483626 26.96611709 5.20607632 24.58784736 7 21 C7.61060882 16.7721136 7.86633283 12.75504327 5.94140625 8.85546875 C2.94881002 5.00321073 -0.14844975 2.85403535 -4.984375 2.0234375 C-9.21447431 1.9742503 -12.38048679 3.57298707 -15.51171875 6.33203125 Z " fill="#D6D9D9" transform="translate(22,0)"/>
<path d="M0 0 C1.39456452 0.00667256 2.78911118 0.01863093 4.18359375 0.03515625 C4.89451172 0.03966797 5.60542969 0.04417969 6.33789062 0.04882812 C8.09899388 0.06064761 9.86005411 0.07858362 11.62109375 0.09765625 C11.29109375 1.08765625 10.96109375 2.07765625 10.62109375 3.09765625 C7.65109375 3.09765625 4.68109375 3.09765625 1.62109375 3.09765625 C3.5774335 5.50887484 3.5774335 5.50887484 7.24609375 5.22265625 C8.35984375 5.18140625 9.47359375 5.14015625 10.62109375 5.09765625 C10.29109375 6.41765625 9.96109375 7.73765625 9.62109375 9.09765625 C7.97109375 9.09765625 6.32109375 9.09765625 4.62109375 9.09765625 C4.95109375 9.75765625 5.28109375 10.41765625 5.62109375 11.09765625 C7.60109375 11.09765625 9.58109375 11.09765625 11.62109375 11.09765625 C11.29109375 12.08765625 10.96109375 13.07765625 10.62109375 14.09765625 C9.36296875 14.13890625 8.10484375 14.18015625 6.80859375 14.22265625 C6.10089844 14.24585938 5.39320312 14.2690625 4.6640625 14.29296875 C2.62109375 14.09765625 2.62109375 14.09765625 -0.37890625 12.09765625 C-2.38728821 12.73862922 -4.38718443 13.40665072 -6.37890625 14.09765625 C-8.5703125 13.6640625 -8.5703125 13.6640625 -10.37890625 13.09765625 C-9.40216521 11.11729139 -8.42244643 9.13839492 -7.44140625 7.16015625 C-6.89613281 6.05800781 -6.35085937 4.95585937 -5.7890625 3.8203125 C-3.86829805 0.11180052 -3.86829805 0.11180052 0 0 Z M-3.37890625 3.09765625 C-3.37890625 4.74765625 -3.37890625 6.39765625 -3.37890625 8.09765625 C-2.38890625 7.76765625 -1.39890625 7.43765625 -0.37890625 7.09765625 C-1.36890625 5.77765625 -2.35890625 4.45765625 -3.37890625 3.09765625 Z " fill="#D7DBDA" transform="translate(15.37890625,8.90234375)"/>
</svg>
